<?xml version="1.0" encoding="UTF-8"?>
<!-- Simple education/book SVG icon for TeachingKG -->
<svg xmlns="http://www.w3.org/2000/svg" viewBox="0 0 64 64" width="320" height="320">
  <defs>
    <linearGradient id="g" x1="0" x2="1" y1="0" y2="1">
      <stop offset="0" stop-color="#2a9d8f"/>
      <stop offset="1" stop-color="#2f80ed"/>
    </linearGradient>
  </defs>
  <rect width="64" height="64" rx="8" fill="#fff" />
  <g transform="translate(8,12)">
    <path d="M0 4c0-1.1.9-2 2-2h28v30H2c-1.1 0-2-.9-2-2V4z" fill="url(#g)" opacity="0.95"/>
    <path d="M30 2h4c1.1 0 2 .9 2 2v24c0 1.1-.9 2-2 2H30V2z" fill="#f6f9fb"/>
    <path d="M4 8h20v2H4zM4 14h20v2H4zM4 20h20v2H4z" fill="#ffffff" opacity="0.9"/>
    <circle cx="36" cy="8" r="3" fill="#2a9d8f"/>
  </g>
</svg>
